<svg xmlns="http://www.w3.org/2000/svg" viewBox="0 0 39.006 46.989">
  <defs>
    <style>
      .cls-1 {
        fill: #fff;
      }
    </style>
  </defs>
  <path id="Forma_1" data-name="Forma 1" class="cls-1" d="M239.2,622.814a5.9,5.9,0,0,1-2.336-3.945l-1.67-11.93-4.713,2.149a5.988,5.988,0,0,1-7.956-2.956,6.061,6.061,0,0,1,3.039-7.971l5.707-2.6a9.733,9.733,0,0,1-4.153-4.525,9.979,9.979,0,0,1,5-13.126,9.82,9.82,0,0,1,13.742,11l5.707-2.6a5.989,5.989,0,0,1,7.956,2.957,6.059,6.059,0,0,1-3.038,7.97l-4.712,2.15,7.807,9.131a6.022,6.022,0,0,1-.706,8.479,6.109,6.109,0,0,1-1.439.919,6.035,6.035,0,0,1-2.951.526,5.922,5.922,0,0,1-4.1-2.068l-2.031-2.376.435,3.1a6.082,6.082,0,0,1-5.132,6.835,6.139,6.139,0,0,1-.9.067A5.937,5.937,0,0,1,239.2,622.814Zm-.568-5.545.184,1.31a4.01,4.01,0,0,0,4.573,3.4,4.091,4.091,0,0,0,3.453-4.6l-.018-.128c-.092.05-.184.1-.278.14a4.46,4.46,0,0,1-4.543-.481,2.449,2.449,0,0,0-1.484-.5A2.514,2.514,0,0,0,238.634,617.27Zm16.018-6.35a4.518,4.518,0,0,1-2.638,3.756c-.113.051-.229.1-.346.139l.228.266a3.984,3.984,0,0,0,2.758,1.391,4.076,4.076,0,0,0,3.428-6.677l-1.018-1.19A2.519,2.519,0,0,0,254.652,610.919Zm-11.447,4.426a2.5,2.5,0,0,0,3.313-.291l-.579-4.133a.991.991,0,0,1,.573-1.039.979.979,0,0,1,1.154.25l2.544,2.975a2.52,2.52,0,0,0,2.477-2.317,4.517,4.517,0,0,1,2.933-3.876l-6.194-7.244a.978.978,0,0,1-.209-.851,1,1,0,0,1,.558-.685l3.555-1.621a4.432,4.432,0,0,1-.923-4.59,2.466,2.466,0,0,0-1.425-3.167l.016-.041-6.4,2.919a.976.976,0,0,1-1.287-1.316,7.875,7.875,0,0,0-10.383-10.625,8,8,0,0,0-4.009,10.518,7.819,7.819,0,0,0,5.1,4.345.971.971,0,0,1,.714.868.994.994,0,0,1-.58.975L228,599.2l.041.016a2.464,2.464,0,0,0,1.425,3.166,4.406,4.406,0,0,1,2.819,3.726l3.3-1.508a.988.988,0,0,1,.879.029.974.974,0,0,1,.5.72l1.355,9.684a4.534,4.534,0,0,1,2.222-.582A4.392,4.392,0,0,1,243.205,615.345Zm-18.879-10.034a4.027,4.027,0,0,0,5.353,1.99l.6-.274a2.461,2.461,0,0,0-1.527-2.8,4.411,4.411,0,0,1-2.836-4.036A4.074,4.074,0,0,0,224.326,605.311Zm28.821-17.486a4.432,4.432,0,0,1,1.106,4.773,2.466,2.466,0,0,0,1.084,3l.349-.159a4.078,4.078,0,0,0,2.045-5.364,4.031,4.031,0,0,0-4.584-2.252Zm-9.232,18.192a1.113,1.113,0,0,1,.559-1.465,1.1,1.1,0,0,1,1.462.544,1.117,1.117,0,0,1-1.021,1.566A1.094,1.094,0,0,1,243.914,606.017Zm-2.021-4.491a1.112,1.112,0,0,1,.559-1.465,1.1,1.1,0,0,1,1.462.544,1.118,1.118,0,0,1-1.021,1.566A1.093,1.093,0,0,1,241.894,601.526Zm-2.021-4.491a1.113,1.113,0,0,1,.559-1.465,1.1,1.1,0,0,1,1.462.544,1.117,1.117,0,0,1-1.021,1.566A1.094,1.094,0,0,1,239.873,597.035Zm-3.749-5.185a.975.975,0,0,1-.569-1.264,1,1,0,0,1,1.272-.581.947.947,0,0,0,.73-.027.958.958,0,0,0,.5-.534.994.994,0,0,1,1.272-.581.974.974,0,0,1,.569,1.264,2.965,2.965,0,0,1-2.759,1.906A2.909,2.909,0,0,1,236.123,591.85Zm-4.6-3.362a1.112,1.112,0,0,1,.559-1.465,1.1,1.1,0,0,1,1.462.544,1.117,1.117,0,0,1-1.021,1.566A1.1,1.1,0,0,1,231.521,588.487Zm6.88-3.137a1.114,1.114,0,0,1,.559-1.466,1.1,1.1,0,0,1,1.463.544,1.117,1.117,0,0,1-1.021,1.566A1.1,1.1,0,0,1,238.4,585.35Z" transform="translate(-222.002 -577.006)"/>
</svg>
