<svg xmlns="http://www.w3.org/2000/svg" viewBox="0 0 33 33">
  <defs>
    <style>
      .cls-1 {
        fill: #555;
      }
    </style>
  </defs>
  <path id="Forma_2" data-name="Forma 2" class="cls-1" d="M257.833,3151.167A16.5,16.5,0,1,1,269.5,3156,16.389,16.389,0,0,1,257.833,3151.167Zm.756-22.578a15.43,15.43,0,1,0,10.911-4.52A15.328,15.328,0,0,0,258.589,3128.588Zm-3.308,10.912a14.219,14.219,0,1,1,14.219,14.219A14.235,14.235,0,0,1,255.281,3139.5Zm14.754,10.833v2.3a13.167,13.167,0,0,0,12.6-12.6h-2.3a.535.535,0,0,1,0-1.069h2.3a13.169,13.169,0,0,0-12.6-12.6v2.3a.535.535,0,1,1-1.069,0v-2.3a13.168,13.168,0,0,0-12.6,12.6h2.3a.535.535,0,0,1,0,1.069h-2.3a13.166,13.166,0,0,0,12.6,12.6v-2.3a.535.535,0,0,1,1.069,0Zm-8.325-3.043a.537.537,0,0,1-.111-.6l4.562-10.264a.537.537,0,0,1,.271-.271L276.7,3131.6a.534.534,0,0,1,.706.706l-4.561,10.263a.531.531,0,0,1-.272.272L262.3,3147.4a.523.523,0,0,1-.217.047A.534.534,0,0,1,261.709,3147.29Zm1.431-1.431,8.283-3.681-.76-.759a2.244,2.244,0,0,1-3.082-3.083l-.76-.76Zm8.6-6.359a2.231,2.231,0,0,1-.326,1.164l.76.759,3.681-8.283-8.283,3.681.76.76a2.224,2.224,0,0,1,1.163-.326A2.248,2.248,0,0,1,271.745,3139.5Zm-3.421,0a1.176,1.176,0,1,0,1.175-1.176A1.177,1.177,0,0,0,268.324,3139.5Z" transform="translate(-253 -3122.999)"/>
</svg>
